<?xml version="1.0" encoding="utf-8"?>
<!-- Generator: Adobe Illustrator 22.1.0, SVG Export Plug-In . SVG Version: 6.00 Build 0)  -->
<svg version="1.1" id="CountdownLogo" xmlns="http://www.w3.org/2000/svg" xmlns:xlink="http://www.w3.org/1999/xlink" x="0px"
	 y="0px" viewBox="0 0 320 56" style="enable-background:new 0 0 320 56;" xml:space="preserve">
<style type="text/css">
	.st0{fill:url(#SVGID_1_);}
	.st1{fill:url(#SVGID_2_);}
	.st2{fill:url(#SVGID_3_);}
	.st3{fill:url(#SVGID_4_);}
	.st4{fill:url(#SVGID_5_);}
	.st5{fill:url(#SVGID_6_);}
	.st6{fill:#00582D;}
</style>
<title>countdown-web-logo</title>
<g>
	<g id="Wapple">
		<linearGradient id="SVGID_1_" gradientUnits="userSpaceOnUse" x1="314.8638" y1="45.5937" x2="295.432" y2="41.0596">
			<stop  offset="0.1209" style="stop-color:#00984F"/>
			<stop  offset="0.3184" style="stop-color:#2EA751"/>
			<stop  offset="0.6449" style="stop-color:#73BE53"/>
			<stop  offset="0.8807" style="stop-color:#9FCC54"/>
			<stop  offset="1" style="stop-color:#B0D255"/>
		</linearGradient>
		<path class="st0" d="M300.8,47.1c-1.4,0-2.7-0.2-3.9-0.5l0,0l0,0c-2,2.8-4.7,5.2-7.7,6.9c2.7,1.5,5.7,2.3,8.9,2.3
			c12.4,0,20.8-12.9,21.8-23.8C319.5,33.5,317,47.1,300.8,47.1z"/>
		<linearGradient id="SVGID_2_" gradientUnits="userSpaceOnUse" x1="307.5489" y1="3.5967" x2="307.5489" y2="47.4562">
			<stop  offset="0" style="stop-color:#07A84D"/>
			<stop  offset="0.1286" style="stop-color:#36B44F"/>
			<stop  offset="0.269" style="stop-color:#61BE51"/>
			<stop  offset="0.4048" style="stop-color:#83C753"/>
			<stop  offset="0.533" style="stop-color:#9CCD54"/>
			<stop  offset="0.6504" style="stop-color:#ABD155"/>
			<stop  offset="0.7473" style="stop-color:#B0D255"/>
		</linearGradient>
		<path class="st1" d="M303.9,12.9c-6,0-8.8,3.5-8.8,3.5c6.1,0.6,13.7,5,13.7,13.9c0,8.7-5.7,12.7-10.4,14c-0.5,0.8-1,1.6-1.5,2.3
			c1.2,0.3,2.6,0.5,3.9,0.5c16.1,0,18.7-13.6,19.1-15.1c0.1-0.7,0.1-1.5,0.1-2.2C320,17.7,310.6,12.9,303.9,12.9z"/>
		<linearGradient id="SVGID_3_" gradientUnits="userSpaceOnUse" x1="272.3213" y1="3.5967" x2="272.3213" y2="47.4562">
			<stop  offset="0" style="stop-color:#07A84D"/>
			<stop  offset="0.1286" style="stop-color:#36B44F"/>
			<stop  offset="0.269" style="stop-color:#61BE51"/>
			<stop  offset="0.4048" style="stop-color:#83C753"/>
			<stop  offset="0.533" style="stop-color:#9CCD54"/>
			<stop  offset="0.6504" style="stop-color:#ABD155"/>
			<stop  offset="0.7473" style="stop-color:#B0D255"/>
		</linearGradient>
		<path class="st2" d="M277.5,47.1c3.4,0,6.4-1,8.8-2.7c-0.8,0.2-1.8,0.4-2.8,0.4c-4.6,0-13.9-3.4-13.9-14.5c0-9,7.5-13.3,13.7-13.9
			c0,0-2.9-3.5-8.8-3.5c-6.7,0-16.1,4.7-16.1,17c0,0.7,0,1.4,0.1,2.2C258.8,33.5,261.3,47.1,277.5,47.1z"/>
		<linearGradient id="SVGID_4_" gradientUnits="userSpaceOnUse" x1="283.1129" y1="24.0649" x2="283.1129" y2="45.4293">
			<stop  offset="0.1868" style="stop-color:#00984F"/>
			<stop  offset="0.4509" style="stop-color:#4CB152"/>
			<stop  offset="0.7802" style="stop-color:#B0D255"/>
		</linearGradient>
		<path class="st3" d="M283.5,44.9c1,0,2-0.2,2.8-0.4h0c1.1-0.8,2.1-1.7,2.9-2.7c0,0,0,0,0,0c-0.6-0.7-3.2-4.3-3.2-9.1
			c0-4.5,2.4-6.4,3.2-6.9c0,0,0,0,0,0c0,0,0,0,0,0c-1.6-1.2-3.5-1.6-4.6-1.6c-1.7,0-6.3,1.2-7.4,6.4c0,0,0,0,0,0c0,0,0,0,0,0
			c0,0.2-0.1,0.4-0.1,0.6c-0.1,0.9-0.2,1.8-0.2,2.9c0,4.2,1.8,8,3.2,10.3C281.4,44.7,282.5,44.9,283.5,44.9z"/>
		<linearGradient id="SVGID_5_" gradientUnits="userSpaceOnUse" x1="274.7813" y1="53.6082" x2="290.9172" y2="-7.2611">
			<stop  offset="5.494510e-02" style="stop-color:#00984F"/>
			<stop  offset="9.259312e-02" style="stop-color:#159F50"/>
			<stop  offset="0.2013" style="stop-color:#4CB152"/>
			<stop  offset="0.3023" style="stop-color:#77BF53"/>
			<stop  offset="0.3926" style="stop-color:#96C954"/>
			<stop  offset="0.4689" style="stop-color:#A9D055"/>
			<stop  offset="0.522" style="stop-color:#B0D255"/>
		</linearGradient>
		<path class="st4" d="M289.3,20.1c-7.5,0-11,5.5-12,10.5c1.1-5.2,5.7-6.4,7.4-6.4c1.1,0,2.9,0.4,4.6,1.6c0,0,0,0,0,0
			c1.8,1.3,3.3,3.6,3.3,7.2c0,3.1-1.2,6.2-3.3,8.8c0,0,0,0,0,0c-2.6,3.2-6.7,5.4-11.7,5.4c-16.2,0-18.7-13.6-19.1-15.1
			c1,10.9,9.4,23.8,21.8,23.8c12.1,0,21.3-12.2,21.3-22.4C301.5,26.4,297.5,20.1,289.3,20.1z"/>
		<linearGradient id="SVGID_6_" gradientUnits="userSpaceOnUse" x1="286.5149" y1="17.7252" x2="305.162" y2="-0.6818">
			<stop  offset="0" style="stop-color:#5CB249"/>
			<stop  offset="0.5241" style="stop-color:#8AC450"/>
			<stop  offset="1" style="stop-color:#B0D255"/>
		</linearGradient>
		<path class="st5" d="M289.5,15.9c0,0-2.6-2.5-2.8-5.9c-0.1-2.5,0.9-6.2,4.8-8.3c9.1-4.9,17,2.2,16.1,6.8c0,0-6.8-3.1-13,0.6
			C290,11.9,289.5,15.9,289.5,15.9z"/>
	</g>
	<g id="Text">
		<path class="st6" d="M8.3,26.4c1.5-0.9,3.3-1.4,5.2-1.4c3.3,0,6.1,1.4,8.2,4.2c0,0.1,0.1,0.1,0.2,0.1c0.1,0,0.2,0,0.2-0.1l1.9-1.5
			c0.1-0.1,0.1-0.3,0.1-0.4c-1.2-1.7-2.8-3-4.6-3.9c-1.8-1-3.8-1.4-6-1.4c-2.5,0-4.8,0.6-6.9,1.8C4.6,25,3,26.6,1.8,28.7
			C0.6,30.8,0,33.1,0,35.6c0,2.5,0.6,4.8,1.8,6.9c1.2,2.1,2.8,3.8,4.9,5c2.1,1.2,4.4,1.8,6.8,1.8c2.2,0,4.2-0.5,6-1.4
			c1.8-1,3.4-2.3,4.6-3.9c0.1-0.1,0.1-0.3-0.1-0.4l-1.9-1.5c-0.1,0-0.1-0.1-0.2-0.1c-0.1,0-0.1,0-0.2,0.1c-2.2,2.8-4.9,4.2-8.3,4.2
			c-1.9,0-3.6-0.5-5.2-1.4c-1.5-0.9-2.8-2.2-3.7-3.8c-0.9-1.6-1.3-3.4-1.3-5.4c0-1.9,0.5-3.7,1.3-5.3C5.6,28.6,6.8,27.3,8.3,26.4z"
			/>
		<path class="st6" d="M46,23.7c-2.1-1.2-4.4-1.8-6.8-1.8c-2.5,0-4.8,0.6-6.9,1.8c-2.1,1.2-3.7,2.8-4.9,4.9
			c-1.2,2.1-1.8,4.4-1.8,6.9c0,2.5,0.6,4.8,1.8,6.9c1.2,2.1,2.8,3.7,4.9,4.9c2.1,1.2,4.3,1.8,6.8,1.8c2.4,0,4.7-0.6,6.8-1.8
			c2.1-1.2,3.8-2.9,5-5c1.2-2.1,1.8-4.4,1.8-6.9c0-2.5-0.6-4.8-1.8-6.9C49.7,26.6,48,24.9,46,23.7z M39.1,46.1
			c-1.9,0-3.7-0.5-5.2-1.4c-1.5-0.9-2.8-2.2-3.6-3.8c-0.9-1.6-1.3-3.4-1.3-5.4c0-2,0.4-3.8,1.3-5.4c0.9-1.6,2.1-2.9,3.7-3.8
			c1.6-0.9,3.3-1.4,5.2-1.4c1.9,0,3.6,0.5,5.2,1.4c1.6,0.9,2.8,2.2,3.7,3.8c0.9,1.6,1.3,3.4,1.3,5.4c0,1.9-0.5,3.7-1.3,5.3
			c-0.9,1.6-2.1,2.9-3.7,3.8C42.8,45.7,41,46.1,39.1,46.1z"/>
		<path class="st6" d="M76,22.5h-2.7c-0.2,0-0.3,0.1-0.3,0.3v16c0,2.2-0.7,4-2,5.4c-1.4,1.3-3.1,2-5.1,2c-2,0-3.8-0.7-5.1-2
			c-1.3-1.3-2-3.1-2-5.4v-16c0-0.2-0.1-0.3-0.3-0.3h-2.7c-0.2,0-0.3,0.1-0.3,0.3v15.9c0,2.1,0.5,4,1.4,5.6c0.9,1.6,2.2,2.8,3.7,3.7
			c1.6,0.9,3.3,1.3,5.3,1.3c1.9,0,3.7-0.4,5.2-1.3c1.6-0.9,2.8-2.1,3.7-3.7c0.9-1.6,1.4-3.5,1.4-5.6V22.8
			C76.3,22.6,76.2,22.5,76,22.5z"/>
		<path class="st6" d="M98.6,24.8c-1.7-1.9-4.1-2.9-7.1-2.9c-1.8,0-3.4,0.4-4.9,1.1c-1.2,0.6-2.2,1.4-3,2.4v-2.6
			c0-0.2-0.1-0.3-0.3-0.3h-2.5c-0.2,0-0.3,0.1-0.3,0.3v25.6c0,0.2,0.1,0.3,0.3,0.3h2.7c0.2,0,0.3-0.1,0.3-0.3v-16
			c0-2.1,0.7-3.9,2.1-5.3c1.4-1.4,3.1-2.1,5.3-2.1c2.1,0,3.8,0.7,5,2c1.2,1.4,1.9,3.1,1.9,5.3v16c0,0.2,0.1,0.3,0.3,0.3h2.7
			c0.2,0,0.3-0.1,0.3-0.3V32.2C101.2,29.2,100.3,26.7,98.6,24.8L98.6,24.8z"/>
		<path class="st6" d="M119.5,45.8c-3.5,0.7-5.9,0.5-7.4-0.7c-0.9-0.8-1.4-2.1-1.4-3.9V25.5h8c0.2,0,0.3-0.1,0.3-0.3v-2.4
			c0-0.2-0.1-0.3-0.3-0.3h-8v-7c0-0.2-0.1-0.3-0.3-0.3h-2.7c-0.2,0-0.3,0.1-0.3,0.3v7h-4.2c-0.2,0-0.3,0.1-0.3,0.3v2.4
			c0,0.2,0.1,0.3,0.3,0.3h4.2v15.7c0,2.7,0.7,4.8,2.2,6.1c1.5,1.3,3.5,1.9,5.9,1.9c1.3,0,2.7-0.2,4.1-0.5c0.1,0,0.2-0.1,0.2-0.3
			v-2.3c0-0.1,0-0.2-0.1-0.2C119.7,45.8,119.6,45.8,119.5,45.8z"/>
		<path class="st6" d="M145.8,8.3h-2.7c-0.2,0-0.3,0.1-0.3,0.3v18.2c-1-1.4-2.3-2.5-3.8-3.3c-1.9-1-4-1.5-6.2-1.5
			c-2.4,0-4.7,0.6-6.7,1.8c-2,1.2-3.6,2.9-4.7,4.9c-1.1,2.1-1.7,4.4-1.7,6.9c0,2.5,0.6,4.8,1.7,6.8c1.1,2.1,2.7,3.7,4.7,4.9
			c2,1.2,4.2,1.8,6.6,1.8c2.3,0,4.4-0.5,6.3-1.6c1.6-0.9,2.9-2,3.8-3.4v4.2c0,0.2,0.1,0.3,0.3,0.3h2.5c0.2,0,0.3-0.1,0.3-0.3V8.6
			C146.1,8.4,146,8.3,145.8,8.3z M133.1,46.1c-1.9,0-3.6-0.5-5.1-1.4c-1.5-0.9-2.7-2.2-3.6-3.8c-0.9-1.6-1.3-3.4-1.3-5.4
			c0-2,0.4-3.8,1.3-5.4c0.9-1.6,2.1-2.9,3.6-3.8c1.5-0.9,3.2-1.4,5.1-1.4c1.7,0,3.3,0.4,4.8,1.1c1.5,0.7,2.7,1.9,3.6,3.5
			c0.9,1.6,1.4,3.6,1.4,6c0,2.3-0.5,4.3-1.4,5.9c-0.9,1.6-2.1,2.7-3.6,3.5C136.4,45.8,134.8,46.1,133.1,46.1z"/>
		<path class="st6" d="M169.4,23.7c-2.1-1.2-4.4-1.8-6.8-1.8c-2.5,0-4.8,0.6-6.9,1.8c-2.1,1.2-3.7,2.8-4.9,4.9
			c-1.2,2.1-1.8,4.4-1.8,6.9c0,2.5,0.6,4.8,1.8,6.9c1.2,2.1,2.8,3.7,4.9,4.9c2.1,1.2,4.3,1.8,6.8,1.8c2.4,0,4.7-0.6,6.8-1.8
			c2.1-1.2,3.8-2.9,5-5c1.2-2.1,1.8-4.4,1.8-6.9c0-2.5-0.6-4.8-1.8-6.9C173.2,26.6,171.5,24.9,169.4,23.7z M162.6,46.1
			c-1.9,0-3.7-0.5-5.2-1.4c-1.5-0.9-2.8-2.2-3.6-3.8c-0.9-1.6-1.3-3.4-1.3-5.4c0-2,0.4-3.8,1.3-5.4c0.9-1.6,2.1-2.9,3.7-3.8
			c1.6-0.9,3.3-1.4,5.2-1.4c1.9,0,3.6,0.5,5.2,1.4c1.6,0.9,2.8,2.2,3.7,3.8c0.9,1.6,1.3,3.4,1.3,5.4c0,1.9-0.5,3.7-1.3,5.3
			c-0.9,1.6-2.1,2.9-3.7,3.8C166.3,45.7,164.5,46.1,162.6,46.1z"/>
		<path class="st6" d="M217.5,22.5h-2.9c-0.1,0-0.2,0.1-0.3,0.2l-7.8,20.5l-9-21c0-0.1-0.1-0.2-0.3-0.2h-1.1c-0.1,0-0.2,0.1-0.3,0.2
			L187,43.3l-7.8-20.6c0-0.1-0.1-0.2-0.3-0.2h-2.9c-0.1,0-0.2,0-0.2,0.1c-0.1,0.1-0.1,0.2,0,0.3L186.2,49c0,0.1,0.1,0.2,0.3,0.2h1.1
			c0.1,0,0.2-0.1,0.3-0.2l9-21l9.1,21c0,0.1,0.1,0.2,0.3,0.2h1.1c0.1,0,0.2-0.1,0.3-0.2l10.3-26.2c0-0.1,0-0.2,0-0.3
			C217.7,22.5,217.6,22.5,217.5,22.5z"/>
		<path class="st6" d="M238.5,24.8L238.5,24.8c-1.7-1.9-4.1-2.9-7.1-2.9c-1.8,0-3.4,0.4-4.9,1.1c-1.2,0.6-2.2,1.4-3,2.4v-2.6
			c0-0.2-0.1-0.3-0.3-0.3h-2.5c-0.2,0-0.3,0.1-0.3,0.3v25.6c0,0.2,0.1,0.3,0.3,0.3h2.7c0.2,0,0.3-0.1,0.3-0.3v-16
			c0-2.1,0.7-3.9,2.1-5.3c1.4-1.4,3.1-2.1,5.3-2.1c2.1,0,3.8,0.7,5,2c1.2,1.4,1.9,3.1,1.9,5.3v16c0,0.2,0.1,0.3,0.3,0.3h2.7
			c0.2,0,0.3-0.1,0.3-0.3V32.2C241.1,29.2,240.2,26.7,238.5,24.8z"/>
	</g>
</g>
</svg>
