<?xml version="1.0" standalone="yes"?>
<svg xmlns="http://www.w3.org/2000/svg" width="246" height="245">
<path style="fill:#1d1d1b; stroke:none;" d="M0 0L0 245L246 245L246 0L0 0z"/>
<path style="fill:#fcfcfc; stroke:none;" d="M157 106C147.59 94.6332 140.877 80.5043 133.05 68C130.585 64.0624 127.485 55.4436 122.794 53.8009C117.143 51.8221 113.679 61.376 111.576 65C103.876 78.2671 93.2809 91.5757 88 106L86 106C84.2699 100.571 80.7218 95.869 77.8002 91C72.6 82.3338 67.4763 73.613 62.189 65C60.1529 61.6831 56.6281 53.6358 52.0031 53.6358C47.7081 53.6358 44.6801 60.9062 42.8611 64C37.1601 73.6962 31.3766 83.3458 25.6003 93C23.7753 96.0503 19.9394 100.869 21.6219 104.682C23.1112 108.057 29.0781 107 32 107L65 107L184 107L212 107C214.962 106.999 220.15 107.797 221.917 104.682C224.071 100.887 218.839 95.0526 217 92L198.8 62C196.951 58.9255 194.519 53.1986 190.09 53.662C185.593 54.1325 182.25 62.6119 180.204 66C172.383 78.9507 162.988 92.1042 157 106M21 136C21 140.155 18.7633 153.431 24.1481 154.593C27.8731 155.396 33.3284 153.781 37 152.985C48.6962 150.449 59.6836 144.396 72 145.093C84.4596 145.798 94.9982 150.807 107 153.192C114.654 154.713 123.221 154.314 131 153.961C146.12 153.274 159.318 144.067 175 145.09C191.247 146.151 205.546 154.66 222 155L222 136C206.214 135.956 192.595 127.189 177 127.004C169.976 126.92 162.881 126.618 156 128.236C145.864 130.62 136.549 135.184 126 135.91C108.561 137.111 93.9975 127.431 77 127.015C70.0003 126.843 62.8518 126.625 56 128.236C44.0676 131.042 33.522 135.896 21 136M21 174L21 193C36.8069 192.956 50.5728 184.076 66 184.001C73.0379 183.966 80.1014 183.614 87 185.236C99.5634 188.19 109.718 193.311 123 192.985C135.864 192.67 146.677 187.192 159 184.666C165.594 183.314 173.297 183.62 180 184.09C194.487 185.105 207.117 192.959 222 193L222 174C207.075 173.959 194.533 166.156 180 165.09C171.079 164.436 161.657 164.814 153 167.159C143.839 169.64 135.712 173.747 126 173.985C106.074 174.473 88.8863 164.905 69 165.001C52.3055 165.081 37.8008 173.998 21 174z"/>
</svg>
