<?xml version="1.0" standalone="yes"?>
<svg xmlns="http://www.w3.org/2000/svg" width="200" height="200">
<path style="fill:#fefefe; stroke:none;" d="M0 0L0 200L200 200L200 0L0 0z"/>
<path style="fill:#45983e; stroke:none;" d="M148 186C147.448 179.013 146.879 168.415 143.566 162.185C141.991 159.223 138.759 157.663 136 156C130.224 152.518 123.5 146.78 117 144.947C113.117 143.852 108.737 146.354 105 147.251C100.237 148.394 94.8691 148.246 90 147.91C65.0049 146.189 42.2961 125.85 38.1944 101C32.7636 68.0979 58.4904 33.7219 93 33.054C104.304 32.8352 116.725 37.0955 126 43.3596C132.412 47.6898 138.096 53.5084 142.301 60C147.693 68.3256 150.56 77.2128 151.715 87C153.385 101.156 146.329 112.633 141 125C137.981 122.87 135.387 120.52 132 119C132.2 128.677 133.973 138.309 134 148C143.694 147.973 153.313 146.08 163 146C161.366 143.657 158.247 140.926 157.845 138C157.327 134.227 161.407 130.143 163.019 127C166.696 119.827 169.111 111.912 170.537 104C174.565 81.6576 168.554 56.8889 152.91 40C133.221 18.7453 103.626 8.1544 75 15.4784C28.0973 27.4785 3.0479 82.9656 25.3233 126C36.6946 147.969 58.9866 165.147 84 167.826C90.077 168.477 96.9178 168.411 103 167.83C106.581 167.488 110.41 166.254 114 167.103C117.644 167.965 120.871 170.637 124 172.576C131.528 177.24 139.537 183.321 148 186M109 50C108.014 51.4785 108 51.2031 108 53C109.289 51.5574 109.401 51.7663 109 50M106 51L107 52L106 51z"/>
<path style="fill:#090909; stroke:none;" d="M107 51C106.014 52.4785 106 52.2032 106 54C107.289 52.5574 107.401 52.7663 107 51M103 53C100.864 55.6587 99.3936 56.1882 96 56L97 60L91 59L93 64C90.8941 63.3562 89.2049 63.0941 87 63C87.4637 65.1723 88.1055 66.9583 89 69C86.271 68.1898 83.8495 68.0208 81 68C82.0219 70.6832 83.2772 72.6936 85 75L76 75C76.9409 77.8273 78.1229 79.6733 80 82C76.8894 82.4014 73.969 82.9941 71 84C72.4958 87.224 74.5196 89.4475 77 92C73.5782 92.0283 70.3632 92.3755 67 93C68.3566 97.7927 71.4365 100.231 76 102C72.1093 103.153 68.0061 103.256 64 104C66.5671 116.723 78.877 116.653 87.787 122.164C90.2739 123.703 91.5511 126.577 93 129L97 128C94.0606 110.707 88.2324 94.789 92.9244 77C94.1965 72.177 96.2994 67.2256 98.9514 63.0008C101.106 59.5689 103.923 56.9584 105 53L103 53z"/>
<path style="fill:#45983e; stroke:none;" d="M105.333 53.6667C105.278 53.7222 105.222 54.7778 105.667 54.3333C105.722 54.2777 105.778 53.2223 105.333 53.6667M100 54L100 57C101.015 55.8607 101.309 55.3884 102 54L100 54M108 55L104 60C106.295 58.7257 109.262 57.8384 108 55M98 56L99 57L98 56M103 56L104 57L103 56z"/>
<path style="fill:#090909; stroke:none;" d="M107 57C91.4085 75.3405 94.0383 99.3045 99 121C104.458 119.737 114.445 117.283 116.124 110.96C117.387 106.206 111.287 99.4452 109.698 95C106.786 86.8511 105.8 78.6072 106.015 70C106.121 65.717 108.239 61.079 107 57z"/>
<path style="fill:#45983e; stroke:none;" d="M95.6667 59.3333C95.2222 59.7778 96.2778 59.7222 96.3333 59.6667C96.7778 59.2222 95.7222 59.2778 95.6667 59.3333M101 59L102 60L101 59M100 60L101 61L100 60M107.333 60.6667C107.278 60.7222 107.222 61.7778 107.667 61.3333C107.722 61.2777 107.778 60.2223 107.333 60.6667M91 61L92 62L91 61M99 61L100 62L99 61M103 61L104 62L103 61M92.3333 62.6667C92.2778 62.7222 92.2222 63.7778 92.6667 63.3333C92.7222 63.2778 92.7778 62.2222 92.3333 62.6667M86.3333 63.6667C86.2778 63.7222 86.2222 64.7778 86.6667 64.3333C86.7223 64.2777 86.7778 63.2223 86.3333 63.6667M98 63L99 64L98 63M101 64L102 65L101 64M106 64L106 69C106.83 66.9695 106.83 66.0305 106 64M97 65L98 66L97 65M87 66L88 67L87 66M100 66L101 67L100 66M88.3333 67.6667C88.2778 67.7222 88.2222 68.7778 88.6667 68.3333C88.7223 68.2777 88.7778 67.2223 88.3333 67.6667M96 67L97 68L96 67M99.3333 68.6667C99.2778 68.7222 99.2222 69.7778 99.6667 69.3333C99.7223 69.2777 99.7777 68.2223 99.3333 68.6667M95 69L96 70L95 69M81 70L82 71L81 70M82 71L83 72L82 71M98 71L99 72L98 71M94 72L95 73L94 72M77 74C79.6127 75.0977 82.1645 74.9928 85 75C82.3873 73.9023 79.8355 74.0072 77 74M93 74L93 77C93.6961 75.4463 93.6961 75.5537 93 74M97 74L98 75L97 74M75 75L76 76L75 75M76 77L77 78L76 77M96.3333 77.6667C96.2778 77.7222 96.2222 78.7778 96.6667 78.3333C96.7222 78.2778 96.7778 77.2222 96.3333 77.6667M92 78L92 82C92.7102 80.2405 92.7102 79.7595 92 78M106.333 81.6667C106.278 81.7222 106.222 82.7778 106.667 82.3333C106.722 82.2778 106.778 81.2222 106.333 81.6667M74 82C75.2484 82.6848 75.5484 82.7488 77 83C75.7517 82.3152 75.4516 82.2512 74 82M95.3333 82.6667C95.2778 82.7222 95.2222 83.7778 95.6667 83.3333C95.7222 83.2778 95.7778 82.2222 95.3333 82.6667M71 83L72 84L71 83M70 84L71 85L70 84M91 85L91 101C92.8123 96.6811 92.8123 89.3189 91 85M71 86L72 87L71 86M107.333 86.6667C107.278 86.7222 107.222 87.7778 107.667 87.3333C107.722 87.2778 107.778 86.2222 107.333 86.6667M72 87L73 88L72 87M73 88L74 89L73 88M74 89L75 90L74 89M73 91C74.506 91.683 75.3148 91.8259 77 92C75.2762 90.9445 75.0793 90.9642 73 91M108.333 90.6667C108.278 90.7222 108.222 91.7778 108.667 91.3333C108.722 91.2778 108.778 90.2222 108.333 90.6667M94 91L94 98C95.0595 95.4657 95.0595 93.5343 94 91M68.6667 92.3333C68.2222 92.7778 69.2778 92.7222 69.3333 92.6667C69.7778 92.2222 68.7222 92.2778 68.6667 92.3333M66.3333 93.6667C66.2778 93.7222 66.2222 94.7778 66.6667 94.3333C66.7222 94.2778 66.7778 93.2222 66.3333 93.6667M109 94L110 95L109 94M110.333 96.6667C110.278 96.7222 110.222 97.7778 110.667 97.3333C110.722 97.2778 110.778 96.2222 110.333 96.6667M111 99L112 100L111 99M72 100L73 101L72 100M73 101L74 102L73 101M112 101L113 102L112 101M75 102L76 103L75 102M65.6667 103.333C65.2222 103.778 66.2778 103.722 66.3333 103.667C66.7778 103.222 65.7222 103.278 65.6667 103.333M113 103L114 104L113 103M63.3333 104.667C63.2778 104.722 63.2222 105.778 63.6667 105.333C63.7222 105.278 63.7778 104.222 63.3333 104.667M114 104L115 105L114 104M95.3333 105.667C95.2778 105.722 95.2222 106.778 95.6667 106.333C95.7222 106.278 95.7778 105.222 95.3333 105.667M92 106L92 109C92.6961 107.446 92.6961 107.554 92 106M115 106L116 107L115 106M64 107L65 108L64 107M116 107L117 108L116 107M117.333 109.667C117.278 109.722 117.222 110.778 117.667 110.333C117.722 110.278 117.778 109.222 117.333 109.667M66 110L67 111L66 110M96.3333 110.667C96.2778 110.722 96.2222 111.778 96.6667 111.333C96.7222 111.278 96.7778 110.222 96.3333 110.667M67 111L68 112L67 111M116 111L117 112L116 111M68 112L69 113L68 112M93 112L93 115C93.6961 113.446 93.6961 113.554 93 112M69 113L70 114L69 113M72 115L73 116L72 115M97.3333 115.667C97.2778 115.722 97.2222 116.778 97.6667 116.333C97.7222 116.278 97.7778 115.222 97.3333 115.667M112 115L113 116L112 115M73 116L74 117L73 116M111 116L112 117L111 116M75 117L76 118L75 117M109 117L110 118L109 117M77 118L78 119L77 118M94 118L95 119L94 118M98 118L98 121C98.6961 119.446 98.6961 119.554 98 118M107 118L108 119L107 118M79 119L80 120L79 119M104.667 119.333C104.222 119.778 105.278 119.722 105.333 119.667C105.778 119.222 104.722 119.278 104.667 119.333M82 120L83 121L82 120M101.667 120.333C101.222 120.778 102.278 120.722 102.333 120.667C102.778 120.222 101.722 120.278 101.667 120.333M86.6667 121.333C86.2222 121.778 87.2778 121.722 87.3333 121.667C87.7778 121.222 86.7222 121.278 86.6667 121.333M95.3333 121.667C95.2778 121.722 95.2222 122.778 95.6667 122.333C95.7222 122.278 95.7778 121.222 95.3333 121.667M89 122L90 123L89 122M90 124L91 125L90 124M96 124L97 125L96 124M91 126L92 127L91 126M97.3333 126.667C97.2778 126.722 97.2222 127.778 97.6667 127.333C97.7222 127.278 97.7778 126.222 97.3333 126.667M92 128L93 129L92 128M94.6667 128.333C94.2222 128.778 95.2778 128.722 95.3333 128.667C95.7778 128.222 94.7222 128.278 94.6667 128.333z"/>
</svg>
